# xmcd
#
# Track frame offsets:
#	150
#	18419
#	34954
#	50447
#	66876
#	83914
#	101947
#	115838
#	130901
#	150974
#	168203
#	185405
#	203335
#	222123
#	238276
#	256424
#	276816
#	297909
#	319882
#	335494
#
# Disc length: 4672
#
# Revision: 2
# Processed by: cddbd v1.5.1PL0 Copyright (c) Steve Scherf et al.
# Submitted via: audiograbber 1.83.01
# Normalized: r1:DSETVAR1
#
DISCID=22123e14
DTITLE=Various Artist - Hot and Beautiful
DYEAR=2004
DGENRE=R&B
TTITLE0=Outkast - Hey Ya
TTITLE1=Christina Millian feat. Fabolous - Dip it Low
TTITLE2=Jay Z feat. Beyonce Knowles - Bonnie and Clyde
TTITLE3=Usher - Pop Ya Collar
TTITLE4=Eamon - Fuck it
TTITLE5=Baby Bash - Suga Suga
TTITLE6=R Kelly - Ignition
TTITLE7=Britney Spears - Toxic
TTITLE8=Justin Timberlake - Rock your Body
TTITLE9=Shaggy feat. Ricardo Ducent - It wasnt Me
TTITLE10=Blu Cantrell feat. Sean Paul - Breathe
TTITLE11=JoJo - Leave
TTITLE12=Kelly Rowland - Stole
TTITLE13=Wyclef Jean - Gone till November
TTITLE14=Donell Jones - U know what´s up
TTITLE15=Toni Braxton - Un Break My Heart
TTITLE16=TLC - Waterfalls
TTITLE17=Lisa Lopes and Melanie C - Never be the Same Again
TTITLE18=Pink - there you go
TTITLE19=Mya - Case of the ex
EXTD=
EXTT0=
EXTT1=
EXTT2=
EXTT3=
EXTT4=
EXTT5=
EXTT6=
EXTT7=
EXTT8=
EXTT9=
EXTT10=
EXTT11=
EXTT12=
EXTT13=
EXTT14=
EXTT15=
EXTT16=
EXTT17=
EXTT18=
EXTT19=
PLAYORDER=
